<svg xmlns="http://www.w3.org/2000/svg" xmlns:xlink="http://www.w3.org/1999/xlink" width="45" zoomAndPan="magnify" viewBox="0 0 33.75 33.749998" height="45" preserveAspectRatio="xMidYMid meet" version="1.2"><defs><clipPath id="423ae80405"><path d="M 0 0 L 33.5 0 L 33.5 33.5 L 0 33.5 Z M 0 0 "/></clipPath><clipPath id="a2fa7a8dab"><path d="M 6.292969 4.523438 L 26.394531 4.523438 L 26.394531 19.542969 L 6.292969 19.542969 Z M 6.292969 4.523438 "/></clipPath><clipPath id="0889072d00"><path d="M 10.773438 10.894531 L 27.136719 10.894531 L 27.136719 29.089844 L 10.773438 29.089844 Z M 10.773438 10.894531 "/></clipPath></defs><g id="290caaec68"><g clip-rule="nonzero" clip-path="url(#423ae80405)"><path style=" stroke:none;fill-rule:nonzero;fill:#ffffff;fill-opacity:1;" d="M 0 0 L 33.5 0 L 33.5 33.5 L 0 33.5 Z M 0 0 "/><path style=" stroke:none;fill-rule:nonzero;fill:#000000;fill-opacity:1;" d="M 0 0 L 33.5 0 L 33.5 33.5 L 0 33.5 Z M 0 0 "/></g><path style=" stroke:none;fill-rule:nonzero;fill:#5841d8;fill-opacity:1;" d="M 16.816406 15.660156 L 18.484375 18.550781 C 18.695312 18.917969 18.433594 19.375 18.011719 19.375 L 14.671875 19.375 C 14.25 19.375 13.988281 18.917969 14.199219 18.550781 L 15.867188 15.660156 C 16.078125 15.296875 16.605469 15.296875 16.816406 15.660156 "/><g clip-rule="nonzero" clip-path="url(#a2fa7a8dab)"><path style=" stroke:none;fill-rule:nonzero;fill:#ffffff;fill-opacity:1;" d="M 13.328125 6.144531 L 6.421875 18.105469 C 6.058594 18.738281 6.511719 19.523438 7.242188 19.523438 C 7.578125 19.523438 7.890625 19.34375 8.058594 19.050781 L 14.964844 7.089844 C 15.253906 6.59375 15.765625 6.296875 16.339844 6.296875 C 16.917969 6.296875 17.429688 6.59375 17.71875 7.089844 L 24.625 19.050781 C 24.792969 19.34375 25.105469 19.523438 25.441406 19.523438 C 26.171875 19.523438 26.625 18.738281 26.261719 18.105469 L 19.355469 6.144531 C 18.726562 5.054688 17.597656 4.40625 16.339844 4.40625 C 15.082031 4.40625 13.957031 5.054688 13.328125 6.144531 "/></g><g clip-rule="nonzero" clip-path="url(#0889072d00)"><path style=" stroke:none;fill-rule:nonzero;fill:#ffffff;fill-opacity:1;" d="M 14.324219 12.066406 L 10.925781 17.957031 C 10.5625 18.585938 11.015625 19.375 11.742188 19.375 C 12.082031 19.375 12.390625 19.191406 12.5625 18.902344 L 15.960938 13.011719 C 16.070312 12.820312 16.246094 12.792969 16.339844 12.792969 C 16.433594 12.792969 16.609375 12.820312 16.71875 13.007812 L 20.277344 19.375 L 25.4375 28.605469 C 25.691406 29.0625 26.265625 29.222656 26.722656 28.96875 C 27.03125 28.796875 27.207031 28.476562 27.207031 28.144531 C 27.207031 27.988281 27.167969 27.828125 27.085938 27.683594 L 22.441406 19.375 L 18.367188 12.078125 C 18.363281 12.074219 18.359375 12.070312 18.359375 12.066406 C 17.9375 11.335938 17.183594 10.902344 16.339844 10.902344 C 15.5 10.902344 14.746094 11.335938 14.324219 12.066406 "/></g></g></svg>