<svg xmlns="http://www.w3.org/2000/svg" xmlns:xlink="http://www.w3.org/1999/xlink" width="142" zoomAndPan="magnify" viewBox="0 0 106.5 30.000001" height="40" preserveAspectRatio="xMidYMid meet" version="1.2"><defs><clipPath id="a216b99313"><path d="M 3.878906 2.714844 L 23.382812 2.714844 L 23.382812 17.402344 L 3.878906 17.402344 Z M 3.878906 2.714844 "/></clipPath><clipPath id="343df053c0"><path d="M 8.222656 9.011719 L 24.171875 9.011719 L 24.171875 26.664062 L 8.222656 26.664062 Z M 8.222656 9.011719 "/></clipPath></defs><g id="cec10d5f14"><g style="fill:#000000;fill-opacity:1;"><g transform="translate(26.116165, 20.117338)"><path style="stroke:none" d="M 3.546875 -8.84375 L 0.0625 -8.84375 L 0.0625 -10.90625 L 9.5625 -10.90625 L 9.5625 -8.84375 L 6.078125 -8.84375 L 6.078125 0 L 3.546875 0 Z M 3.546875 -8.84375 "/></g></g><g style="fill:#000000;fill-opacity:1;"><g transform="translate(34.880805, 20.117338)"><path style="stroke:none" d="M 5.109375 0.125 C 4.222656 0.125 3.429688 -0.0546875 2.734375 -0.421875 C 2.035156 -0.796875 1.488281 -1.304688 1.09375 -1.953125 C 0.695312 -2.609375 0.5 -3.351562 0.5 -4.1875 C 0.5 -5.019531 0.695312 -5.765625 1.09375 -6.421875 C 1.488281 -7.078125 2.035156 -7.585938 2.734375 -7.953125 C 3.429688 -8.316406 4.222656 -8.5 5.109375 -8.5 C 5.992188 -8.5 6.78125 -8.316406 7.46875 -7.953125 C 8.164062 -7.585938 8.710938 -7.078125 9.109375 -6.421875 C 9.503906 -5.765625 9.703125 -5.019531 9.703125 -4.1875 C 9.703125 -3.351562 9.503906 -2.609375 9.109375 -1.953125 C 8.710938 -1.304688 8.164062 -0.796875 7.46875 -0.421875 C 6.78125 -0.0546875 5.992188 0.125 5.109375 0.125 Z M 5.109375 -1.875 C 5.734375 -1.875 6.242188 -2.082031 6.640625 -2.5 C 7.046875 -2.914062 7.25 -3.476562 7.25 -4.1875 C 7.25 -4.894531 7.046875 -5.457031 6.640625 -5.875 C 6.242188 -6.300781 5.734375 -6.515625 5.109375 -6.515625 C 4.484375 -6.515625 3.96875 -6.300781 3.5625 -5.875 C 3.15625 -5.457031 2.953125 -4.894531 2.953125 -4.1875 C 2.953125 -3.476562 3.15625 -2.914062 3.5625 -2.5 C 3.96875 -2.082031 4.484375 -1.875 5.109375 -1.875 Z M 5.109375 -1.875 "/></g></g><g style="fill:#000000;fill-opacity:1;"><g transform="translate(45.077893, 20.117338)"><path style="stroke:none" d="M 6.078125 -8.5 C 6.859375 -8.5 7.566406 -8.320312 8.203125 -7.96875 C 8.835938 -7.613281 9.335938 -7.109375 9.703125 -6.453125 C 10.066406 -5.804688 10.25 -5.050781 10.25 -4.1875 C 10.25 -3.320312 10.066406 -2.566406 9.703125 -1.921875 C 9.335938 -1.273438 8.835938 -0.769531 8.203125 -0.40625 C 7.566406 -0.0507812 6.859375 0.125 6.078125 0.125 C 5.003906 0.125 4.160156 -0.210938 3.546875 -0.890625 L 3.546875 3.015625 L 1.125 3.015625 L 1.125 -8.375 L 3.4375 -8.375 L 3.4375 -7.421875 C 4.039062 -8.140625 4.921875 -8.5 6.078125 -8.5 Z M 5.65625 -1.875 C 6.28125 -1.875 6.789062 -2.082031 7.1875 -2.5 C 7.582031 -2.914062 7.78125 -3.476562 7.78125 -4.1875 C 7.78125 -4.894531 7.582031 -5.457031 7.1875 -5.875 C 6.789062 -6.300781 6.28125 -6.515625 5.65625 -6.515625 C 5.03125 -6.515625 4.515625 -6.300781 4.109375 -5.875 C 3.710938 -5.457031 3.515625 -4.894531 3.515625 -4.1875 C 3.515625 -3.476562 3.710938 -2.914062 4.109375 -2.5 C 4.515625 -2.082031 5.03125 -1.875 5.65625 -1.875 Z M 5.65625 -1.875 "/></g></g><g style="fill:#000000;fill-opacity:1;"><g transform="translate(55.819862, 20.117338)"><path style="stroke:none" d=""/></g></g><g style="fill:#000000;fill-opacity:1;"><g transform="translate(60.225628, 20.117338)"><path style="stroke:none" d="M 6.515625 0.1875 C 5.398438 0.1875 4.394531 -0.0507812 3.5 -0.53125 C 2.601562 -1.019531 1.894531 -1.691406 1.375 -2.546875 C 0.863281 -3.398438 0.609375 -4.367188 0.609375 -5.453125 C 0.609375 -6.535156 0.863281 -7.503906 1.375 -8.359375 C 1.894531 -9.210938 2.601562 -9.878906 3.5 -10.359375 C 4.394531 -10.847656 5.40625 -11.09375 6.53125 -11.09375 C 7.46875 -11.09375 8.316406 -10.925781 9.078125 -10.59375 C 9.847656 -10.257812 10.492188 -9.78125 11.015625 -9.15625 L 9.390625 -7.671875 C 8.648438 -8.515625 7.738281 -8.9375 6.65625 -8.9375 C 5.976562 -8.9375 5.375 -8.785156 4.84375 -8.484375 C 4.3125 -8.191406 3.894531 -7.78125 3.59375 -7.25 C 3.300781 -6.726562 3.15625 -6.128906 3.15625 -5.453125 C 3.15625 -4.773438 3.300781 -4.171875 3.59375 -3.640625 C 3.894531 -3.109375 4.3125 -2.695312 4.84375 -2.40625 C 5.375 -2.113281 5.976562 -1.96875 6.65625 -1.96875 C 7.738281 -1.96875 8.648438 -2.394531 9.390625 -3.25 L 11.015625 -1.765625 C 10.492188 -1.128906 9.847656 -0.644531 9.078125 -0.3125 C 8.304688 0.0195312 7.453125 0.1875 6.515625 0.1875 Z M 6.515625 0.1875 "/></g></g><g style="fill:#000000;fill-opacity:1;"><g transform="translate(71.341171, 20.117338)"><path style="stroke:none" d="M 5.109375 0.125 C 4.222656 0.125 3.429688 -0.0546875 2.734375 -0.421875 C 2.035156 -0.796875 1.488281 -1.304688 1.09375 -1.953125 C 0.695312 -2.609375 0.5 -3.351562 0.5 -4.1875 C 0.5 -5.019531 0.695312 -5.765625 1.09375 -6.421875 C 1.488281 -7.078125 2.035156 -7.585938 2.734375 -7.953125 C 3.429688 -8.316406 4.222656 -8.5 5.109375 -8.5 C 5.992188 -8.5 6.78125 -8.316406 7.46875 -7.953125 C 8.164062 -7.585938 8.710938 -7.078125 9.109375 -6.421875 C 9.503906 -5.765625 9.703125 -5.019531 9.703125 -4.1875 C 9.703125 -3.351562 9.503906 -2.609375 9.109375 -1.953125 C 8.710938 -1.304688 8.164062 -0.796875 7.46875 -0.421875 C 6.78125 -0.0546875 5.992188 0.125 5.109375 0.125 Z M 5.109375 -1.875 C 5.734375 -1.875 6.242188 -2.082031 6.640625 -2.5 C 7.046875 -2.914062 7.25 -3.476562 7.25 -4.1875 C 7.25 -4.894531 7.046875 -5.457031 6.640625 -5.875 C 6.242188 -6.300781 5.734375 -6.515625 5.109375 -6.515625 C 4.484375 -6.515625 3.96875 -6.300781 3.5625 -5.875 C 3.15625 -5.457031 2.953125 -4.894531 2.953125 -4.1875 C 2.953125 -3.476562 3.15625 -2.914062 3.5625 -2.5 C 3.96875 -2.082031 4.484375 -1.875 5.109375 -1.875 Z M 5.109375 -1.875 "/></g></g><g style="fill:#000000;fill-opacity:1;"><g transform="translate(81.538258, 20.117338)"><path style="stroke:none" d="M 9.65625 -11.5625 L 9.65625 0 L 7.34375 0 L 7.34375 -0.96875 C 6.738281 -0.238281 5.863281 0.125 4.71875 0.125 C 3.925781 0.125 3.210938 -0.0507812 2.578125 -0.40625 C 1.941406 -0.757812 1.441406 -1.257812 1.078125 -1.90625 C 0.710938 -2.5625 0.53125 -3.320312 0.53125 -4.1875 C 0.53125 -5.050781 0.710938 -5.8125 1.078125 -6.46875 C 1.441406 -7.125 1.941406 -7.625 2.578125 -7.96875 C 3.210938 -8.320312 3.925781 -8.5 4.71875 -8.5 C 5.789062 -8.5 6.628906 -8.164062 7.234375 -7.5 L 7.234375 -11.5625 Z M 5.140625 -1.875 C 5.753906 -1.875 6.265625 -2.082031 6.671875 -2.5 C 7.078125 -2.914062 7.28125 -3.476562 7.28125 -4.1875 C 7.28125 -4.894531 7.078125 -5.457031 6.671875 -5.875 C 6.265625 -6.300781 5.753906 -6.515625 5.140625 -6.515625 C 4.515625 -6.515625 4 -6.300781 3.59375 -5.875 C 3.1875 -5.457031 2.984375 -4.894531 2.984375 -4.1875 C 2.984375 -3.476562 3.1875 -2.914062 3.59375 -2.5 C 4 -2.082031 4.515625 -1.875 5.140625 -1.875 Z M 5.140625 -1.875 "/></g></g><g style="fill:#000000;fill-opacity:1;"><g transform="translate(92.311363, 20.117338)"><path style="stroke:none" d="M 9.328125 -4.15625 C 9.328125 -4.125 9.3125 -3.90625 9.28125 -3.5 L 2.9375 -3.5 C 3.050781 -2.976562 3.320312 -2.566406 3.75 -2.265625 C 4.175781 -1.972656 4.707031 -1.828125 5.34375 -1.828125 C 5.78125 -1.828125 6.164062 -1.890625 6.5 -2.015625 C 6.84375 -2.148438 7.160156 -2.351562 7.453125 -2.625 L 8.734375 -1.234375 C 7.953125 -0.328125 6.800781 0.125 5.28125 0.125 C 4.332031 0.125 3.492188 -0.0546875 2.765625 -0.421875 C 2.046875 -0.796875 1.488281 -1.304688 1.09375 -1.953125 C 0.695312 -2.609375 0.5 -3.351562 0.5 -4.1875 C 0.5 -5.007812 0.691406 -5.75 1.078125 -6.40625 C 1.472656 -7.070312 2.007812 -7.585938 2.6875 -7.953125 C 3.363281 -8.316406 4.125 -8.5 4.96875 -8.5 C 5.789062 -8.5 6.53125 -8.320312 7.1875 -7.96875 C 7.851562 -7.625 8.375 -7.117188 8.75 -6.453125 C 9.132812 -5.796875 9.328125 -5.03125 9.328125 -4.15625 Z M 4.984375 -6.671875 C 4.429688 -6.671875 3.96875 -6.515625 3.59375 -6.203125 C 3.21875 -5.890625 2.988281 -5.460938 2.90625 -4.921875 L 7.046875 -4.921875 C 6.960938 -5.453125 6.734375 -5.875 6.359375 -6.1875 C 5.984375 -6.507812 5.523438 -6.671875 4.984375 -6.671875 Z M 4.984375 -6.671875 "/></g></g><path style=" stroke:none;fill-rule:nonzero;fill:#5841d8;fill-opacity:1;" d="M 14.089844 13.636719 L 15.707031 16.441406 C 15.914062 16.792969 15.65625 17.238281 15.246094 17.238281 L 12.007812 17.238281 C 11.597656 17.238281 11.34375 16.792969 11.546875 16.441406 L 13.167969 13.636719 C 13.371094 13.28125 13.882812 13.28125 14.089844 13.636719 "/><g clip-rule="nonzero" clip-path="url(#a216b99313)"><path style=" stroke:none;fill-rule:nonzero;fill:#000000;fill-opacity:1;" d="M 10.703125 4.402344 L 4.003906 16.007812 C 3.648438 16.621094 4.089844 17.382812 4.796875 17.382812 C 5.125 17.382812 5.425781 17.210938 5.589844 16.925781 L 12.292969 5.320312 C 12.570312 4.835938 13.070312 4.546875 13.628906 4.546875 C 14.183594 4.546875 14.683594 4.835938 14.964844 5.320312 L 21.664062 16.925781 C 21.828125 17.210938 22.132812 17.382812 22.457031 17.382812 C 23.164062 17.382812 23.605469 16.621094 23.253906 16.007812 L 16.550781 4.402344 C 15.941406 3.34375 14.847656 2.714844 13.628906 2.714844 C 12.40625 2.714844 11.3125 3.34375 10.703125 4.402344 "/></g><g clip-rule="nonzero" clip-path="url(#343df053c0)"><path style=" stroke:none;fill-rule:nonzero;fill:#000000;fill-opacity:1;" d="M 11.671875 10.148438 L 8.371094 15.863281 C 8.019531 16.472656 8.460938 17.238281 9.164062 17.238281 C 9.492188 17.238281 9.796875 17.0625 9.960938 16.777344 L 13.257812 11.066406 C 13.367188 10.878906 13.535156 10.851562 13.628906 10.851562 C 13.71875 10.851562 13.886719 10.878906 13.996094 11.0625 L 17.445312 17.238281 L 22.453125 26.195312 C 22.699219 26.636719 23.257812 26.796875 23.699219 26.550781 C 24 26.382812 24.171875 26.070312 24.171875 25.746094 C 24.171875 25.597656 24.132812 25.441406 24.054688 25.300781 L 19.546875 17.238281 L 15.589844 10.160156 C 15.589844 10.15625 15.585938 10.152344 15.585938 10.148438 C 15.175781 9.441406 14.445312 9.019531 13.628906 9.019531 C 12.8125 9.019531 12.078125 9.441406 11.671875 10.148438 "/></g></g></svg>