<svg xmlns="http://www.w3.org/2000/svg" xmlns:xlink="http://www.w3.org/1999/xlink" width="108" zoomAndPan="magnify" viewBox="0 0 81 67.499998" height="90" preserveAspectRatio="xMidYMid meet" version="1.2"><defs><clipPath id="4b3f00e398"><path d="M 15.402344 4.261719 L 63.332031 4.261719 L 63.332031 40.359375 L 15.402344 40.359375 Z M 15.402344 4.261719 "/></clipPath><clipPath id="16743ee128"><path d="M 26.082031 19.734375 L 65.269531 19.734375 L 65.269531 63.121094 L 26.082031 63.121094 Z M 26.082031 19.734375 "/></clipPath></defs><g id="430e4c4371"><path style=" stroke:none;fill-rule:nonzero;fill:#5841d8;fill-opacity:1;" d="M 40.492188 31.097656 L 44.472656 37.992188 C 44.976562 38.863281 44.347656 39.953125 43.34375 39.953125 L 35.382812 39.953125 C 34.375 39.953125 33.746094 38.863281 34.25 37.992188 L 38.230469 31.097656 C 38.734375 30.226562 39.992188 30.226562 40.492188 31.097656 "/><g clip-rule="nonzero" clip-path="url(#4b3f00e398)"><path style=" stroke:none;fill-rule:nonzero;fill:#ffffff;fill-opacity:1;" d="M 32.175781 8.410156 L 15.710938 36.933594 C 14.839844 38.433594 15.925781 40.3125 17.660156 40.3125 C 18.464844 40.3125 19.210938 39.882812 19.613281 39.183594 L 36.078125 10.664062 C 36.765625 9.476562 37.992188 8.769531 39.363281 8.769531 C 40.734375 8.769531 41.960938 9.476562 42.644531 10.664062 L 59.113281 39.183594 C 59.515625 39.882812 60.257812 40.3125 61.0625 40.3125 C 62.796875 40.3125 63.882812 38.433594 63.015625 36.933594 L 46.546875 8.410156 C 45.046875 5.8125 42.363281 4.261719 39.363281 4.261719 C 36.363281 4.261719 33.675781 5.8125 32.175781 8.410156 "/></g><g clip-rule="nonzero" clip-path="url(#16743ee128)"><path style=" stroke:none;fill-rule:nonzero;fill:#ffffff;fill-opacity:1;" d="M 34.550781 22.527344 L 26.445312 36.570312 C 25.578125 38.074219 26.660156 39.953125 28.394531 39.953125 C 29.203125 39.953125 29.945312 39.523438 30.347656 38.824219 L 38.457031 24.78125 C 38.71875 24.328125 39.136719 24.257812 39.363281 24.257812 C 39.585938 24.257812 40 24.328125 40.261719 24.773438 L 48.746094 39.953125 L 61.046875 61.964844 C 61.65625 63.050781 63.027344 63.441406 64.113281 62.832031 C 64.851562 62.421875 65.269531 61.652344 65.269531 60.863281 C 65.269531 60.492188 65.175781 60.113281 64.984375 59.765625 L 53.910156 39.953125 L 44.1875 22.554688 C 44.183594 22.546875 44.175781 22.539062 44.171875 22.527344 C 43.167969 20.789062 41.371094 19.753906 39.363281 19.75 C 37.355469 19.75 35.554688 20.789062 34.550781 22.527344 "/></g></g></svg>